<?xml version="1.0" standalone="no"?>
<!DOCTYPE svg PUBLIC "-//W3C//DTD SVG 20010904//EN"
 "http://www.w3.org/TR/2001/REC-SVG-20010904/DTD/svg10.dtd">
<svg version="1.0" xmlns="http://www.w3.org/2000/svg"
 width="150.000000pt" height="48.000000pt" viewBox="0 0 150.000000 48.000000"
 preserveAspectRatio="xMidYMid meet">

<g transform="translate(0.000000,48.000000) scale(0.100000,-0.100000)"
fill="#000000" stroke="none">
<path d="M1077 463 c-4 -3 -7 -13 -7 -22 0 -13 -11 -16 -52 -16 l-53 0 0 -195
0 -195 112 -2 113 -3 2 163 3 162 24 -150 c13 -82 28 -156 34 -163 11 -14 103
-8 120 7 7 7 -34 284 -49 334 -5 15 -13 17 -52 11 -26 -4 -55 -11 -64 -16 -16
-8 -18 -3 -18 36 0 31 -5 46 -16 50 -21 8 -89 8 -97 -1z m101 -215 l-3 -203
-47 -3 -48 -3 0 205 0 206 50 0 50 0 -2 -202z m-123 -18 l0 -185 -40 0 -40 0
-3 188 -2 188 42 -3 43 -3 0 -185z m285 -13 c12 -81 21 -150 19 -152 -2 -2
-26 -5 -53 -7 l-49 -3 -25 153 c-14 84 -22 155 -20 158 12 11 93 20 99 10 3
-6 16 -78 29 -159z"/>
<path d="M1090 410 c0 -5 18 -10 40 -10 22 0 40 5 40 10 0 6 -18 10 -40 10
-22 0 -40 -4 -40 -10z"/>
<path d="M1090 80 c0 -5 18 -10 40 -10 22 0 40 5 40 10 0 6 -18 10 -40 10 -22
0 -40 -4 -40 -10z"/>
<path d="M985 380 c-4 -6 8 -10 30 -10 22 0 34 4 30 10 -3 6 -17 10 -30 10
-13 0 -27 -4 -30 -10z"/>
<path d="M980 80 c0 -5 13 -10 29 -10 17 0 33 5 36 10 4 6 -8 10 -29 10 -20 0
-36 -4 -36 -10z"/>
<path d="M1248 363 c-28 -4 -40 -23 -14 -23 29 0 76 13 76 21 0 9 -12 9 -62 2z"/>
<path d="M1283 93 c-13 -2 -23 -9 -23 -15 0 -6 12 -8 31 -4 17 3 38 6 45 6 8
0 14 5 14 10 0 10 -25 11 -67 3z"/>
<path d="M823 443 c-13 -5 -53 -86 -53 -108 0 -17 49 -29 64 -16 7 6 21 8 33
5 27 -7 56 22 44 44 -16 29 -75 80 -88 75z m41 -52 c16 -17 25 -34 21 -41 -5
-8 -11 -8 -17 -2 -11 11 -48 4 -48 -9 0 -5 -6 -6 -14 -3 -12 4 -11 11 2 45 8
21 18 39 22 39 3 0 19 -13 34 -29z"/>
<path d="M830 380 c0 -5 5 -10 11 -10 5 0 7 5 4 10 -3 6 -8 10 -11 10 -2 0 -4
-4 -4 -10z"/>
<path d="M625 408 c-9 -23 10 -101 25 -111 23 -14 87 16 102 47 8 20 8 32 0
51 -10 22 -18 25 -67 25 -35 0 -57 -5 -60 -12z m108 -22 c9 -22 -31 -66 -59
-66 -19 0 -24 5 -24 24 0 13 -3 31 -6 40 -5 13 2 16 39 16 30 0 47 -5 50 -14z"/>
<path d="M678 384 c-8 -7 2 -44 12 -44 11 0 21 30 14 41 -6 10 -18 12 -26 3z"/>
<path d="M487 394 c-3 -4 -3 -27 0 -52 l6 -45 -42 46 c-26 28 -48 44 -57 40
-14 -5 -54 -85 -54 -108 0 -17 49 -29 64 -16 7 6 21 8 33 5 12 -3 27 1 37 11
12 12 20 14 29 6 17 -14 89 -3 103 16 9 10 9 23 1 46 -5 18 -11 38 -13 45 -3
12 -95 18 -107 6z m91 -31 c-1 -10 1 -24 5 -30 5 -7 5 -18 2 -23 -11 -17 -35
9 -35 36 0 13 -4 24 -9 24 -6 0 -7 -16 -4 -35 4 -28 2 -35 -11 -35 -10 0 -16
8 -16 24 0 13 -3 31 -6 40 -5 13 2 16 36 16 34 0 41 -3 38 -17z m-144 -32 c16
-17 25 -34 21 -41 -5 -8 -11 -8 -17 -2 -11 11 -48 4 -48 -9 0 -5 -6 -6 -14 -3
-12 4 -11 11 2 45 8 21 18 39 22 39 3 0 19 -13 34 -29z"/>
<path d="M400 320 c0 -5 5 -10 11 -10 5 0 7 5 4 10 -3 6 -8 10 -11 10 -2 0 -4
-4 -4 -10z"/>
<path d="M230 351 c-28 -5 -36 -11 -38 -32 -7 -64 39 -110 91 -90 34 13 47 46
38 92 -7 37 -24 43 -91 30z m68 -53 c-3 -40 -5 -43 -36 -46 -27 -3 -34 1 -42
23 -14 37 -12 55 4 55 9 0 16 -12 18 -27 2 -18 10 -29 22 -31 16 -4 18 0 12
32 -6 29 -4 36 9 36 13 0 16 -9 13 -42z"/>
<path d="M77 322 c-31 -33 -35 -72 -9 -95 22 -20 95 -23 110 -4 11 13 4 77 -8
77 -5 0 -10 10 -12 23 -5 34 -47 34 -81 -1z m63 0 c0 -4 -9 -16 -21 -25 -21
-19 -22 -38 -1 -45 7 -2 12 3 12 12 0 9 7 16 15 16 9 0 15 -9 15 -25 0 -22 -4
-25 -33 -25 -57 0 -74 36 -35 77 21 22 48 31 48 15z"/>
<path d="M798 254 c-17 -9 -28 -23 -29 -37 0 -14 -2 -17 -6 -7 -23 66 -143 41
-143 -29 0 -75 112 -89 141 -18 l14 32 5 -30 c6 -37 36 -44 70 -17 22 18 23
23 14 68 -10 54 -24 62 -66 38z m32 -25 c-13 -8 -13 -11 3 -20 24 -14 21 -38
-5 -48 -27 -10 -38 -4 -18 10 13 8 13 11 -2 20 -25 14 -22 38 5 48 26 10 37 4
17 -10z m-104 -7 c36 -24 12 -82 -35 -82 -51 0 -69 46 -29 74 24 17 47 20 64
8z"/>
<path d="M674 195 c-7 -18 3 -35 21 -35 18 0 26 15 19 34 -8 20 -33 21 -40 1z"/>
<path d="M487 214 c-9 -9 4 -96 16 -111 12 -16 88 -6 103 14 9 10 9 23 1 46
-5 18 -11 38 -13 45 -3 12 -95 18 -107 6z m91 -31 c-1 -10 1 -24 5 -30 5 -7 5
-18 2 -23 -11 -17 -35 9 -35 36 0 13 -4 24 -9 24 -6 0 -7 -16 -4 -35 4 -28 2
-35 -11 -35 -10 0 -16 8 -16 24 0 13 -3 31 -6 40 -5 13 2 16 36 16 34 0 41 -3
38 -17z"/>
<path d="M410 199 c0 -6 -8 -8 -20 -4 -22 7 -60 -10 -60 -28 0 -19 78 -99 90
-92 15 9 50 81 50 104 0 19 -18 31 -46 31 -8 0 -14 -5 -14 -11z m24 -63 c-10
-20 -20 -36 -23 -36 -3 0 -18 15 -33 34 -19 24 -24 37 -17 42 7 4 20 -4 30
-17 l18 -24 11 29 c7 20 14 26 21 19 7 -7 4 -22 -7 -47z"/>
<path d="M142 177 c-8 -9 -9 -30 -3 -66 11 -68 30 -82 85 -61 30 11 34 43 8
62 -9 7 -22 27 -27 43 -11 33 -44 45 -63 22z m42 -23 c3 -9 6 -27 6 -40 0 -17
6 -24 20 -24 11 0 20 -5 20 -11 0 -6 -14 -9 -32 -7 -30 3 -33 7 -39 43 -4 22
-5 43 -2 48 7 12 21 8 27 -9z"/>
<path d="M256 171 c-10 -15 6 -100 20 -112 7 -6 22 -8 34 -4 21 7 26 35 14 94
-5 26 -11 31 -35 31 -15 0 -30 -4 -33 -9z m48 -33 c10 -38 7 -58 -9 -58 -9 0
-15 9 -15 24 0 13 -3 31 -6 40 -4 10 -1 16 9 16 8 0 17 -10 21 -22z"/>
</g>
</svg>
